<svg fill="#FCCA46" id="fi_3715150" enable-background="new 0 0 64 64" height="512" viewBox="0 0 64 64" width="512" xmlns="http://www.w3.org/2000/svg"><g><circle cx="6" cy="6" r="1"></circle><path d="m13 5h12v2h-12z"></path><path d="m60.728 41.651-3.728-.932-2-.5-2-.5-2-.5v-.219h6c1.654 0 3-1.346 3-3v-10.929l-1.979-.147c-.023-.178-.014-.356.056-.519.056-.129.11-.26.161-.39.108-.28.345-.497.648-.596 1.264-.416 2.114-1.59 2.114-2.921v-.996c0-1.331-.85-2.505-2.116-2.921-.302-.099-.538-.316-.646-.594-.051-.132-.104-.263-.161-.393-.118-.273-.104-.591.038-.873.601-1.188.372-2.62-.57-3.561l-.704-.704c-.942-.941-2.373-1.171-3.561-.57-.282.142-.6.157-.874.038-.128-.056-.259-.109-.39-.161-.279-.109-.497-.345-.596-.648-.417-1.265-1.591-2.115-2.922-2.115h-.996c-1.331 0-2.505.85-2.921 2.116-.099.302-.316.537-.596.646-.131.051-.261.104-.391.161-.273.119-.592.104-.873-.038-1.188-.601-2.62-.371-3.561.57l-.704.704c-.942.941-1.171 2.373-.57 3.561.143.282.156.6.038.874-.056.129-.11.26-.161.39-.108.28-.345.497-.648.596-.04.013-.075.033-.114.048v-10.628c0-2.757-2.243-5-5-5h-26.001c-2.757 0-5 2.243-5 5v52c0 2.757 2.243 5 5 5h26c2.757 0 5-2.243 5-5v-9c1.267 0 2.386-.604 3.119-1.526l.353.706c.345.691.528 1.465.528 2.237v1.583c0 6.065 4.935 11 11 11s11-4.935 11-11v-7.438c0-1.38-.935-2.577-2.272-2.911zm-23.728-22.149c0-.465.297-.875.739-1.021.873-.286 1.561-.932 1.887-1.772.042-.107.086-.214.131-.318.356-.82.325-1.757-.087-2.572-.21-.415-.13-.916.199-1.245l.704-.704c.329-.33.828-.41 1.245-.199.815.412 1.754.443 2.571.087.106-.046.213-.09.32-.131.839-.327 1.485-1.015 1.772-1.887.145-.443.556-.74 1.021-.74h.996c.465 0 .875.297 1.021.74.287.872.932 1.56 1.771 1.886.107.042.214.086.319.131.819.356 1.757.324 2.572-.087.415-.211.915-.13 1.245.199l.704.704c.329.329.409.83.199 1.245-.412.815-.443 1.752-.087 2.571.045.105.089.212.132.321.326.839 1.014 1.484 1.887 1.771.442.145.739.556.739 1.021v.996c0 .465-.297.875-.74 1.021-.872.286-1.56.932-1.886 1.772-.042.107-.086.214-.131.318-.162.372-.233.769-.236 1.166l-2.711-.201c1.081-1.245 1.704-2.85 1.704-4.574 0-3.86-3.14-7-7-7s-7 3.14-7 7c0 1.347.397 2.639 1.099 3.745l-2.358-.175c-.039-.093-.078-.186-.116-.281-.326-.839-1.014-1.484-1.887-1.771-.441-.144-.738-.555-.738-1.02zm16 .498c0 1.834-.985 3.478-2.576 4.362l-5.465-.405c-1.227-.944-1.959-2.401-1.959-3.957 0-2.757 2.243-5 5-5s5 2.243 5 5zm5 6.929v9.071c0 .551-.449 1-1 1h-6v-5c0-1.654-1.346-3-3-3s-3 1.346-3 3v5h-12v-11.923zm-55-20.929c0-1.654 1.346-3 3-3h26c1.654 0 3 1.346 3 3v3h-32zm32 52c0 1.654-1.346 3-3 3h-26c-1.654 0-3-1.346-3-3v-7h32zm0-9h-32v-38h32v8.502.996 2.722l-2-.148v-7.072c0-1.654-1.346-3-3-3h-22c-1.654 0-3 1.346-3 3v28c0 1.654 1.346 3 3 3h22c1.654 0 3-1.346 3-3v-5h2v2.556c-1.19.694-2 1.97-2 3.444s.81 2.75 2 3.444zm-28-28v-5c0-.551.449-1 1-1h22c.551 0 1 .449 1 1v5zm24 2v21c0 .551-.449 1-1 1h-22c-.551 0-1-.449-1-1v-21zm6 24c-1.103 0-2-.897-2-2s.897-2 2-2 2 .897 2 2-.897 2-2 2zm3.095-4.503c-.734-.905-1.841-1.497-3.095-1.497v-2h8v4.23c-.927-.757-2.094-1.23-3.382-1.23-.569 0-1.093.188-1.523.497zm20.905 9.503c0 4.962-4.038 9-9 9s-9-4.038-9-9v-1.583c0-1.081-.255-2.164-.739-3.131l-1.196-2.391c-.043-.086-.065-.182-.065-.277 0-.341.277-.618.618-.618 1.865 0 3.382 1.517 3.382 3.382v1.618 3h2v-3-1.618-15.382c0-.551.449-1 1-1s1 .449 1 1v6.719 13.281h2v-10.719l2 .5v10.219h2v-9.719l2 .5v9.219h2v-8.719l1.242.311c.446.111.758.51.758.97z"></path><path d="m48 17c-1.654 0-3 1.346-3 3s1.346 3 3 3 3-1.346 3-3-1.346-3-3-3zm0 4c-.551 0-1-.449-1-1s.449-1 1-1 1 .449 1 1-.449 1-1 1z"></path><path d="m16 59h6c1.654 0 3-1.346 3-3s-1.346-3-3-3h-6c-1.654 0-3 1.346-3 3s1.346 3 3 3zm0-4h6c.551 0 1 .449 1 1s-.449 1-1 1h-6c-.551 0-1-.449-1-1s.449-1 1-1z"></path><path d="m17 17h2v2h-2z"></path><path d="m13 17h2v2h-2z"></path><path d="m9 17h2v2h-2z"></path><path d="m19 25h-10v6h10zm-2 4h-6v-2h6z"></path><path d="m21 25h8v2h-8z"></path><path d="m21 29h8v2h-8z"></path><path d="m24 43c2.757 0 5-2.243 5-5s-2.243-5-5-5-5 2.243-5 5 2.243 5 5 5zm0-8c1.654 0 3 1.346 3 3s-1.346 3-3 3-3-1.346-3-3 1.346-3 3-3z"></path><path d="m9 41h8v2h-8z"></path><path d="m9 37h8v2h-8z"></path><path d="m9 33h8v2h-8z"></path></g></svg>